<svg xmlns="http://www.w3.org/2000/svg" width="400" height="400" viewBox="0 0 200 200" fill="#5da71a"><path d="M73.908 2.824c-.14 17.246.283 34.5-.393 51.739-14.82-8.341-29.449-17.015-44.287-25.322 8.277 14.93 17.223 29.482 25.307 44.52-17.137.31-34.278.237-51.417.339C17.906 82.727 32.882 91.034 47.47 100c-14.6 8.947-29.568 17.268-44.353 25.9 17.138.114 34.278.003 51.413.363-7.999 15.037-17.148 29.428-25.147 44.465 14.83-8.256 29.244-17.252 44.308-25.085.314 17.138.035 34.281.287 51.42 8.683-14.854 17.096-29.866 26.02-44.579 8.998 14.628 17.244 29.699 26 44.47.113-17.177.008-34.356.342-51.53 14.929 8.243 29.554 17.022 44.441 25.34-8.242-14.926-17.201-29.446-25.295-44.455 17.13-.383 34.264-.3 51.396-.408-14.752-8.715-29.85-16.849-44.343-25.997 14.658-8.812 29.555-17.217 44.345-25.804-17.133-.108-34.268-.023-51.398-.408 8.06-15.03 17.095-29.512 25.265-44.48-14.802 8.432-29.524 17.005-44.346 25.404-.532-17.2-.05-34.413-.407-51.617-8.716 14.843-17.071 29.897-25.999 44.615-8.952-14.78-17.339-29.892-26.09-44.79Z"/></svg>