<svg xmlns="http://www.w3.org/2000/svg" width="400" height="400" fill="#5da71a" viewBox="0 0 200 200"><path d="M75.901 10.242c-.13 15.929.261 31.865-.363 47.787-13.688-7.704-27.2-15.715-40.904-23.388 7.645 13.79 15.907 27.23 23.374 41.12-15.828.286-31.66.219-47.49.313 13.659 7.968 27.49 15.64 40.964 23.922-13.484 8.263-27.31 15.949-40.965 23.921 15.83.106 31.66.003 47.486.336-7.388 13.888-15.838 27.18-23.226 41.068 13.697-7.625 27.01-15.934 40.924-23.169.29 15.83.032 31.663.265 47.493 8.02-13.72 15.79-27.585 24.032-41.174 8.31 13.51 15.927 27.43 24.014 41.073.105-15.865.007-31.732.316-47.594 13.789 7.613 27.297 15.722 41.047 23.405-7.613-13.786-15.888-27.197-23.363-41.06 15.821-.354 31.647-.277 47.47-.377-13.625-8.049-27.57-15.562-40.956-24.011 13.538-8.139 27.297-15.902 40.958-23.833-15.825-.1-31.65-.021-47.472-.377 7.444-13.882 15.789-27.258 23.335-41.082-13.671 7.788-27.269 15.706-40.959 23.463-.491-15.886-.046-31.784-.376-47.674-8.05 13.71-15.767 27.613-24.013 41.207-8.268-13.651-16.014-27.609-24.097-41.369Z" style="stroke-width:.923618"/></svg>